<svg width="502" height="159" viewBox="0 0 502 159" fill="none" xmlns="http://www.w3.org/2000/svg">
<path d="M33.39 53.02C39.09 53.02 44.07 54.31 48.33 56.89C52.65 59.47 55.98 63.19 58.32 68.05C60.72 72.85 61.92 78.7 61.92 85.6C61.92 92.32 60.69 98.2 58.23 103.24C55.83 108.28 52.47 112.21 48.15 115.03C43.83 117.85 38.88 119.26 33.3 119.26C27.6 119.26 22.59 117.97 18.27 115.39C14.01 112.81 10.68 109.09 8.28 104.23C5.94 99.37 4.77 93.52 4.77 86.68C4.77 79.96 6 74.08 8.46 69.04C10.92 64 14.28 60.07 18.54 57.25C22.86 54.43 27.81 53.02 33.39 53.02ZM33.03 54.64C29.13 54.64 25.74 55.99 22.86 58.69C19.98 61.39 17.73 65.11 16.11 69.85C14.55 74.59 13.77 80.08 13.77 86.32C13.77 92.68 14.64 98.23 16.38 102.97C18.18 107.65 20.58 111.28 23.58 113.86C26.64 116.38 30 117.64 33.66 117.64C37.56 117.64 40.95 116.29 43.83 113.59C46.71 110.89 48.93 107.17 50.49 102.43C52.11 97.63 52.92 92.14 52.92 85.96C52.92 79.54 52.02 73.99 50.22 69.31C48.48 64.63 46.11 61.03 43.11 58.51C40.11 55.93 36.75 54.64 33.03 54.64ZM127.57 47.62C130.09 47.62 132.4 47.86 134.5 48.34C136.6 48.82 138.31 49.48 139.63 50.32C140.59 50.92 141.34 51.64 141.88 52.48C142.42 53.26 142.69 54.19 142.69 55.27C142.69 56.89 142.12 58.27 140.98 59.41C139.84 60.55 138.49 61.12 136.93 61.12C135.37 61.12 134.02 60.55 132.88 59.41C131.74 58.27 131.17 56.92 131.17 55.36C131.17 54.28 131.44 53.29 131.98 52.39C132.52 51.49 133.24 50.8 134.14 50.32C133.36 49.84 132.37 49.51 131.17 49.33C129.97 49.09 128.77 48.97 127.57 48.97C124.45 48.97 121.84 49.6 119.74 50.86C117.64 52.12 115.99 53.8 114.79 55.9C114.25 56.92 113.8 58.12 113.44 59.5C113.08 60.82 112.81 62.47 112.63 64.45C112.45 66.37 112.36 68.8 112.36 71.74H126.85C129.25 71.74 131.32 71.71 133.06 71.65C134.8 71.59 136.36 71.5 137.74 71.38C139.12 71.2 140.47 70.96 141.79 70.66V109.63C141.79 112.15 142.3 113.86 143.32 114.76C144.4 115.66 146.17 116.11 148.63 116.11V118C147.61 117.94 146.05 117.88 143.95 117.82C141.91 117.7 139.84 117.64 137.74 117.64C135.7 117.64 133.63 117.7 131.53 117.82C129.43 117.88 127.87 117.94 126.85 118V116.11C129.31 116.11 131.05 115.66 132.07 114.76C133.15 113.86 133.69 112.15 133.69 109.63V81.46C133.69 78.76 133.21 76.78 132.25 75.52C131.29 74.2 129.49 73.54 126.85 73.54H112.36V109.63C112.36 112.21 113.05 113.95 114.43 114.85C115.81 115.69 117.7 116.11 120.1 116.11V118C118.9 117.94 117.19 117.88 114.97 117.82C112.81 117.7 110.59 117.64 108.31 117.64C106.09 117.64 103.96 117.7 101.92 117.82C99.9401 117.88 98.4401 117.94 97.4201 118V116.11C99.8801 116.11 101.62 115.66 102.64 114.76C103.72 113.86 104.26 112.15 104.26 109.63V73.54H97.0601V71.74H104.26C104.26 67.9 104.74 64.45 105.7 61.39C106.72 58.33 108.4 55.69 110.74 53.47C112.48 51.85 114.73 50.47 117.49 49.33C120.25 48.19 123.61 47.62 127.57 47.62ZM94.0001 51.22C97.4201 51.22 100.33 51.88 102.73 53.2C105.19 54.46 107.17 56.35 108.67 58.87L107.41 59.86C106.27 57.82 104.62 56.14 102.46 54.82C100.3 53.5 97.8401 52.84 95.0801 52.84C91.4201 52.84 88.5701 53.98 86.5301 56.26C84.4901 58.48 83.4701 62.11 83.4701 67.15V71.74H97.0601V73.54H83.4701V109.63C83.4701 112.15 83.9801 113.86 85.0001 114.76C86.0801 115.66 87.8501 116.11 90.3101 116.11V118C89.2901 117.94 87.7601 117.88 85.7201 117.82C83.6801 117.7 81.6101 117.64 79.5101 117.64C77.4701 117.64 75.3701 117.7 73.2101 117.82C71.1101 117.88 69.5501 117.94 68.5301 118V116.11C70.9901 116.11 72.7301 115.66 73.7501 114.76C74.8301 113.86 75.3701 112.15 75.3701 109.63V73.54H68.1701V71.74H75.3701C75.3701 68.38 75.7601 65.5 76.5401 63.1C77.3201 60.7 78.4001 58.69 79.7801 57.07C81.3401 55.33 83.3201 53.92 85.7201 52.84C88.1801 51.76 90.9401 51.22 94.0001 51.22ZM175.755 70.39C177.675 70.39 179.535 70.63 181.335 71.11C183.135 71.59 184.755 72.31 186.195 73.27C187.575 74.17 188.625 75.22 189.345 76.42C190.065 77.56 190.425 78.82 190.425 80.2C190.425 81.82 189.975 83.08 189.075 83.98C188.175 84.82 187.035 85.24 185.655 85.24C184.335 85.24 183.165 84.85 182.145 84.07C181.185 83.29 180.705 82.18 180.705 80.74C180.705 79.36 181.065 78.25 181.785 77.41C182.565 76.57 183.465 76.03 184.485 75.79C183.885 74.71 182.805 73.81 181.245 73.09C179.745 72.37 178.125 72.01 176.385 72.01C174.885 72.01 173.385 72.37 171.885 73.09C170.385 73.81 169.005 75.01 167.745 76.69C166.485 78.31 165.465 80.56 164.685 83.44C163.905 86.26 163.515 89.8 163.515 94.06C163.515 99.34 164.115 103.54 165.315 106.66C166.515 109.78 168.075 112.03 169.995 113.41C171.975 114.73 174.135 115.39 176.475 115.39C178.035 115.39 179.625 115.09 181.245 114.49C182.865 113.89 184.395 112.93 185.835 111.61C187.275 110.23 188.505 108.4 189.525 106.12L191.235 106.75C190.635 108.67 189.645 110.62 188.265 112.6C186.885 114.52 185.085 116.11 182.865 117.37C180.645 118.63 177.915 119.26 174.675 119.26C170.955 119.26 167.595 118.3 164.595 116.38C161.595 114.46 159.195 111.73 157.395 108.19C155.655 104.59 154.785 100.33 154.785 95.41C154.785 90.49 155.655 86.17 157.395 82.45C159.195 78.67 161.685 75.73 164.865 73.63C168.045 71.47 171.675 70.39 175.755 70.39ZM218.894 70.39C224.174 70.39 228.284 72.01 231.224 75.25C234.224 78.43 235.724 83.41 235.724 90.19H203.954L203.864 88.48H227.084C227.204 85.54 226.964 82.84 226.364 80.38C225.764 77.86 224.804 75.85 223.484 74.35C222.224 72.85 220.574 72.1 218.534 72.1C215.774 72.1 213.314 73.48 211.154 76.24C209.054 79 207.794 83.38 207.374 89.38L207.644 89.74C207.524 90.64 207.434 91.63 207.374 92.71C207.314 93.79 207.284 94.87 207.284 95.95C207.284 100.03 207.944 103.54 209.264 106.48C210.584 109.42 212.294 111.67 214.394 113.23C216.554 114.73 218.774 115.48 221.054 115.48C222.854 115.48 224.564 115.21 226.184 114.67C227.804 114.07 229.304 113.11 230.684 111.79C232.064 110.47 233.264 108.7 234.284 106.48L236.084 107.2C235.424 109.18 234.344 111.1 232.844 112.96C231.344 114.82 229.454 116.35 227.174 117.55C224.894 118.69 222.254 119.26 219.254 119.26C214.934 119.26 211.214 118.27 208.094 116.29C205.034 114.31 202.664 111.58 200.984 108.1C199.364 104.56 198.554 100.51 198.554 95.95C198.554 90.67 199.394 86.14 201.074 82.36C202.754 78.52 205.124 75.58 208.184 73.54C211.244 71.44 214.814 70.39 218.894 70.39Z" fill="white"/>
<path d="M356.72 113.22C353.6 113.22 352.04 110.94 352.04 106.38C352.04 101.7 353.66 94.8 356.9 85.68C353.06 90.6 349.22 94.98 345.38 98.82C341.66 102.54 337.94 105.6 334.22 108C331.58 109.92 329.18 110.88 327.02 110.88C324.14 110.88 322.7 108.9 322.7 104.94C322.7 102.78 323.06 100.8 323.78 99C324.74 96.36 326.12 93.3 327.92 89.82C329.84 86.34 332.06 82.86 334.58 79.38C337.1 75.9 339.68 72.96 342.32 70.56C343.28 69.96 343.88 69.66 344.12 69.66C344.96 69.66 345.38 70.14 345.38 71.1C345.38 71.46 345.2 71.94 344.84 72.54C343.76 73.74 342.5 75.48 341.06 77.76C339.62 80.04 338.24 82.5 336.92 85.14C335.6 87.78 334.46 90.24 333.5 92.52C332.66 94.68 332.24 96.3 332.24 97.38C332.24 99.54 333.2 100.62 335.12 100.62C335.96 100.62 336.86 100.32 337.82 99.72C342.26 96.96 346.34 93.66 350.06 89.82C353.78 85.86 357.26 80.52 360.5 73.8C361.58 73.08 362.78 72.72 364.1 72.72C365.42 72.72 366.5 73.14 367.34 73.98C368.3 74.82 368.78 75.96 368.78 77.4C368.78 78.48 368.48 79.74 367.88 81.18C367.76 81.66 367.52 82.14 367.16 82.62C366.92 83.1 366.62 83.64 366.26 84.24C365.9 84.84 365.6 85.44 365.36 86.04C365.12 86.52 364.88 86.94 364.64 87.3C362.36 91.38 360.56 94.8 359.24 97.56C358.04 100.32 357.44 102.72 357.44 104.76C357.44 107.16 358.52 108.36 360.68 108.36C362.6 108.36 364.52 107.64 366.44 106.2C367.64 105.36 368.66 104.94 369.5 104.94C370.82 104.94 370.52 105.78 368.6 107.46C366.8 109.02 364.58 110.46 361.94 111.78C359.42 112.74 357.68 113.22 356.72 113.22ZM373.865 111.78C372.305 111.78 371.525 110.4 371.525 107.64C371.525 105.36 372.065 103.14 373.145 100.98C375.905 95.7 378.425 90.48 380.705 85.32C382.265 82.2 383.705 79.2 385.025 76.32C386.465 73.44 387.785 70.8 388.985 68.4C389.705 67.68 390.425 67.32 391.145 67.32C392.705 67.32 393.185 68.04 392.585 69.48C392.345 70.32 391.985 71.34 391.505 72.54C391.145 73.62 390.665 74.94 390.065 76.5C388.145 81.54 387.005 85.08 386.645 87.12C390.005 84.12 393.425 81.36 396.905 78.84C400.505 76.2 403.865 74.04 406.985 72.36C410.105 70.68 412.745 69.84 414.905 69.84C416.825 69.84 417.785 70.62 417.785 72.18C417.785 73.5 417.185 74.94 415.985 76.5C414.785 77.94 413.585 78.66 412.385 78.66C411.785 78.66 411.305 78.48 410.945 78.12C410.585 78 409.865 77.94 408.785 77.94C404.945 77.94 400.925 79.8 396.725 83.52C392.285 87.24 388.265 91.74 384.665 97.02C381.065 102.18 378.425 106.68 376.745 110.52C375.905 111.36 374.945 111.78 373.865 111.78ZM437.813 112.86C437.573 112.86 437.333 112.8 437.093 112.68C436.853 112.68 436.613 112.62 436.373 112.5C434.693 111.66 433.613 110.46 433.133 108.9C432.653 107.34 432.533 105.36 432.773 102.96C433.013 102 433.253 100.32 433.493 97.92C433.853 95.52 434.273 93.6 434.753 92.16L425.573 100.98L420.533 105.84C417.053 109.32 414.173 111.06 411.893 111.06C410.933 111.06 410.153 110.7 409.553 109.98C408.473 108.66 407.933 107.04 407.933 105.12C407.933 102.6 408.593 99.9 409.913 97.02C411.233 94.14 412.793 91.38 414.593 88.74C416.393 85.98 418.013 83.7 419.453 81.9C423.053 77.46 426.533 73.98 429.893 71.46C433.373 68.94 436.973 67.68 440.693 67.68C442.733 67.68 444.713 68.04 446.633 68.76C448.673 69.48 450.533 70.68 452.213 72.36L452.393 72.54C452.393 72.9 452.093 73.26 451.493 73.62C451.253 73.86 451.013 74.04 450.773 74.16C450.653 74.28 450.533 74.4 450.413 74.52C448.973 75.96 447.353 78.36 445.553 81.72C443.753 85.08 442.193 88.62 440.873 92.34C439.553 95.94 438.893 99.06 438.893 101.7C438.893 104.1 439.493 105.72 440.693 106.56C441.293 106.92 441.953 107.1 442.673 107.1C444.233 107.1 446.393 106.14 449.153 104.22C449.273 104.1 449.513 103.92 449.873 103.68C450.353 103.32 451.013 102.84 451.853 102.24C452.813 101.52 453.593 101.16 454.193 101.16C454.793 101.16 455.093 101.4 455.093 101.88C455.093 102.6 454.613 103.44 453.653 104.4C452.933 105 452.093 105.66 451.133 106.38C450.293 107.1 449.273 107.82 448.073 108.54C446.273 109.86 444.413 110.88 442.493 111.6C440.573 112.44 439.013 112.86 437.813 112.86ZM417.473 101.34C419.993 101.34 424.673 97.62 431.513 90.18C433.313 88.14 434.933 86.22 436.373 84.42C437.813 82.5 439.133 80.64 440.333 78.84C442.493 75.36 443.213 72.96 442.493 71.64C442.133 70.92 441.413 70.56 440.333 70.56C439.013 70.56 437.213 71.28 434.933 72.72C432.653 74.04 430.313 75.78 427.913 77.94C425.633 80.1 423.533 82.26 421.613 84.42C420.293 86.1 418.973 88.44 417.653 91.44C416.333 94.44 415.673 96.9 415.673 98.82C415.673 100.5 416.273 101.34 417.473 101.34Z" fill="#FFE100"/>
<path d="M184.12 158.5C178.113 158.5 173.467 156.743 170.18 153.23C166.78 149.717 165.08 144.957 165.08 138.95C165.08 137.477 165.193 136.06 165.42 134.7C165.533 133.34 165.703 132.093 165.93 130.96C167.97 121.327 173.127 110.277 181.4 97.81C186.84 89.4233 192.903 81.83 199.59 75.03C206.39 68.23 213.36 62.79 220.5 58.71C227.753 54.63 234.723 52.59 241.41 52.59C245.263 52.59 248.097 53.6667 249.91 55.82C251.723 57.86 252.63 60.6367 252.63 64.15C252.63 68.23 251.61 72.9333 249.57 78.26C247.417 83.5867 244.753 88.63 241.58 93.39C238.52 98.0367 235.517 101.437 232.57 103.59C232.117 104.043 231.607 104.27 231.04 104.27C230.587 104.27 230.36 103.987 230.36 103.42C230.36 102.173 231.153 100.927 232.74 99.68C234.213 98.66 235.8 96.9033 237.5 94.41C239.313 91.8033 241.013 88.9133 242.6 85.74C244.3 82.5667 245.66 79.3933 246.68 76.22C247.813 73.0467 248.38 70.3267 248.38 68.06C248.38 62.62 245.66 59.9 240.22 59.9C229.907 59.9 219.933 63.8667 210.3 71.8C203.84 77.0133 197.947 83.1333 192.62 90.16C187.407 97.0733 182.93 104.157 179.19 111.41C175.563 118.663 172.9 125.52 171.2 131.98C170.52 134.473 170.18 136.967 170.18 139.46C170.18 144.333 171.597 148.187 174.43 151.02C177.15 153.853 180.89 155.043 185.65 154.59C194.377 153.797 204.01 150.34 214.55 144.22C221.463 140.14 228.15 135.55 234.61 130.45C241.07 125.35 247.077 120.023 252.63 114.47C258.183 108.803 263 103.363 267.08 98.15L258.92 99.34C256.427 99.68 254.33 100.077 252.63 100.53C251.043 100.87 249.967 101.153 249.4 101.38C249.173 101.493 248.89 101.55 248.55 101.55C247.87 101.55 247.53 101.04 247.53 100.02C247.53 99 247.87 97.81 248.55 96.45C249.343 95.09 250.193 94.1833 251.1 93.73C254.16 92.1433 261.47 90.9533 273.03 90.16C278.017 84.4933 283.173 78.8267 288.5 73.16C294.167 67.04 298.927 61.8267 302.78 57.52C306.633 53.2133 310.033 49.2467 312.98 45.62C316.04 41.88 318.987 38.0267 321.82 34.06C322.727 32.8133 323.633 32.19 324.54 32.19C325.22 32.19 325.56 32.53 325.56 33.21C325.56 33.89 325.333 34.4567 324.88 34.91C321.027 40.35 317.003 45.6767 312.81 50.89C308.617 56.1033 303.97 61.6567 298.87 67.55C293.883 73.33 288.217 79.9033 281.87 87.27L279.66 89.82L287.48 89.48L302.44 88.97C302.327 89.1967 302.837 88.1767 303.97 85.91C305.103 83.53 306.803 79.9033 309.07 75.03C312.243 68.4567 315.02 62.62 317.4 57.52C319.893 52.3067 321.933 47.83 323.52 44.09C326.807 36.7233 328.507 31.6233 328.62 28.79C328.733 27.3167 329.47 26.1833 330.83 25.39C332.19 24.5967 333.72 24.2 335.42 24.2C336.667 24.2 337.8 24.4267 338.82 24.88C339.953 25.22 340.633 25.6733 340.86 26.24C341.427 27.26 340.577 29.98 338.31 34.4C336.837 37.46 335.023 40.9733 332.87 44.94C330.717 48.9067 328.28 53.3267 325.56 58.2C321.82 64.8867 318.59 70.78 315.87 75.88C313.263 80.98 311.167 85.2867 309.58 88.8L322.67 88.12H323.18C324.2 88.12 324.71 88.46 324.71 89.14C324.71 89.5933 324.427 90.0467 323.86 90.5C323.293 90.9533 322.557 91.2367 321.65 91.35L307.88 92.37C307.767 92.5967 307.143 93.9567 306.01 96.45C304.877 98.9433 303.233 102.513 301.08 107.16C296.773 116.68 294.62 124.783 294.62 131.47C294.62 136.003 296.32 138.27 299.72 138.27C300.627 138.27 301.817 137.817 303.29 136.91C304.877 136.117 306.35 135.153 307.71 134.02C309.183 132.887 310.26 131.867 310.94 130.96C311.733 129.827 312.527 129.26 313.32 129.26C313.773 129.26 314 129.487 314 129.94C314 130.507 313.547 131.243 312.64 132.15C311.507 133.397 310.033 134.813 308.22 136.4C306.407 137.987 304.593 139.347 302.78 140.48C300.967 141.613 299.437 142.237 298.19 142.35C290.937 142.803 287.31 139.517 287.31 132.49C287.31 128.297 288.33 123.48 290.37 118.04C292.523 112.6 295.187 106.253 298.36 99L301.08 92.88C297.227 93.22 291.957 94.07 285.27 95.43C282.89 95.8833 280.737 96.28 278.81 96.62C276.997 96.8467 275.467 97.0733 274.22 97.3C267.533 104.893 260.337 112.317 252.63 119.57C244.923 126.823 237.047 133.397 229 139.29C221.067 145.183 213.247 149.83 205.54 153.23C197.947 156.743 190.807 158.5 184.12 158.5Z" fill="#FFE100"/>
</svg>
