<svg width="502" height="159" viewBox="0 0 502 159" fill="none" xmlns="http://www.w3.org/2000/svg">
<path d="M33.39 53.02C39.09 53.02 44.07 54.31 48.33 56.89C52.65 59.47 55.98 63.19 58.32 68.05C60.72 72.85 61.92 78.7 61.92 85.6C61.92 92.32 60.69 98.2 58.23 103.24C55.83 108.28 52.47 112.21 48.15 115.03C43.83 117.85 38.88 119.26 33.3 119.26C27.6 119.26 22.59 117.97 18.27 115.39C14.01 112.81 10.68 109.09 8.28 104.23C5.94 99.37 4.77 93.52 4.77 86.68C4.77 79.96 6 74.08 8.46 69.04C10.92 64 14.28 60.07 18.54 57.25C22.86 54.43 27.81 53.02 33.39 53.02ZM33.03 54.64C29.13 54.64 25.74 55.99 22.86 58.69C19.98 61.39 17.73 65.11 16.11 69.85C14.55 74.59 13.77 80.08 13.77 86.32C13.77 92.68 14.64 98.23 16.38 102.97C18.18 107.65 20.58 111.28 23.58 113.86C26.64 116.38 30 117.64 33.66 117.64C37.56 117.64 40.95 116.29 43.83 113.59C46.71 110.89 48.93 107.17 50.49 102.43C52.11 97.63 52.92 92.14 52.92 85.96C52.92 79.54 52.02 73.99 50.22 69.31C48.48 64.63 46.11 61.03 43.11 58.51C40.11 55.93 36.75 54.64 33.03 54.64ZM127.57 47.62C130.09 47.62 132.4 47.86 134.5 48.34C136.6 48.82 138.31 49.48 139.63 50.32C140.59 50.92 141.34 51.64 141.88 52.48C142.42 53.26 142.69 54.19 142.69 55.27C142.69 56.89 142.12 58.27 140.98 59.41C139.84 60.55 138.49 61.12 136.93 61.12C135.37 61.12 134.02 60.55 132.88 59.41C131.74 58.27 131.17 56.92 131.17 55.36C131.17 54.28 131.44 53.29 131.98 52.39C132.52 51.49 133.24 50.8 134.14 50.32C133.36 49.84 132.37 49.51 131.17 49.33C129.97 49.09 128.77 48.97 127.57 48.97C124.45 48.97 121.84 49.6 119.74 50.86C117.64 52.12 115.99 53.8 114.79 55.9C114.25 56.92 113.8 58.12 113.44 59.5C113.08 60.82 112.81 62.47 112.63 64.45C112.45 66.37 112.36 68.8 112.36 71.74H126.85C129.25 71.74 131.32 71.71 133.06 71.65C134.8 71.59 136.36 71.5 137.74 71.38C139.12 71.2 140.47 70.96 141.79 70.66V109.63C141.79 112.15 142.3 113.86 143.32 114.76C144.4 115.66 146.17 116.11 148.63 116.11V118C147.61 117.94 146.05 117.88 143.95 117.82C141.91 117.7 139.84 117.64 137.74 117.64C135.7 117.64 133.63 117.7 131.53 117.82C129.43 117.88 127.87 117.94 126.85 118V116.11C129.31 116.11 131.05 115.66 132.07 114.76C133.15 113.86 133.69 112.15 133.69 109.63V81.46C133.69 78.76 133.21 76.78 132.25 75.52C131.29 74.2 129.49 73.54 126.85 73.54H112.36V109.63C112.36 112.21 113.05 113.95 114.43 114.85C115.81 115.69 117.7 116.11 120.1 116.11V118C118.9 117.94 117.19 117.88 114.97 117.82C112.81 117.7 110.59 117.64 108.31 117.64C106.09 117.64 103.96 117.7 101.92 117.82C99.9401 117.88 98.4401 117.94 97.4201 118V116.11C99.8801 116.11 101.62 115.66 102.64 114.76C103.72 113.86 104.26 112.15 104.26 109.63V73.54H97.0601V71.74H104.26C104.26 67.9 104.74 64.45 105.7 61.39C106.72 58.33 108.4 55.69 110.74 53.47C112.48 51.85 114.73 50.47 117.49 49.33C120.25 48.19 123.61 47.62 127.57 47.62ZM94.0001 51.22C97.4201 51.22 100.33 51.88 102.73 53.2C105.19 54.46 107.17 56.35 108.67 58.87L107.41 59.86C106.27 57.82 104.62 56.14 102.46 54.82C100.3 53.5 97.8401 52.84 95.0801 52.84C91.4201 52.84 88.5701 53.98 86.5301 56.26C84.4901 58.48 83.4701 62.11 83.4701 67.15V71.74H97.0601V73.54H83.4701V109.63C83.4701 112.15 83.9801 113.86 85.0001 114.76C86.0801 115.66 87.8501 116.11 90.3101 116.11V118C89.2901 117.94 87.7601 117.88 85.7201 117.82C83.6801 117.7 81.6101 117.64 79.5101 117.64C77.4701 117.64 75.3701 117.7 73.2101 117.82C71.1101 117.88 69.5501 117.94 68.5301 118V116.11C70.9901 116.11 72.7301 115.66 73.7501 114.76C74.8301 113.86 75.3701 112.15 75.3701 109.63V73.54H68.1701V71.74H75.3701C75.3701 68.38 75.7601 65.5 76.5401 63.1C77.3201 60.7 78.4001 58.69 79.7801 57.07C81.3401 55.33 83.3201 53.92 85.7201 52.84C88.1801 51.76 90.9401 51.22 94.0001 51.22ZM175.755 70.39C177.675 70.39 179.535 70.63 181.335 71.11C183.135 71.59 184.755 72.31 186.195 73.27C187.575 74.17 188.625 75.22 189.345 76.42C190.065 77.56 190.425 78.82 190.425 80.2C190.425 81.82 189.975 83.08 189.075 83.98C188.175 84.82 187.035 85.24 185.655 85.24C184.335 85.24 183.165 84.85 182.145 84.07C181.185 83.29 180.705 82.18 180.705 80.74C180.705 79.36 181.065 78.25 181.785 77.41C182.565 76.57 183.465 76.03 184.485 75.79C183.885 74.71 182.805 73.81 181.245 73.09C179.745 72.37 178.125 72.01 176.385 72.01C174.885 72.01 173.385 72.37 171.885 73.09C170.385 73.81 169.005 75.01 167.745 76.69C166.485 78.31 165.465 80.56 164.685 83.44C163.905 86.26 163.515 89.8 163.515 94.06C163.515 99.34 164.115 103.54 165.315 106.66C166.515 109.78 168.075 112.03 169.995 113.41C171.975 114.73 174.135 115.39 176.475 115.39C178.035 115.39 179.625 115.09 181.245 114.49C182.865 113.89 184.395 112.93 185.835 111.61C187.275 110.23 188.505 108.4 189.525 106.12L191.235 106.75C190.635 108.67 189.645 110.62 188.265 112.6C186.885 114.52 185.085 116.11 182.865 117.37C180.645 118.63 177.915 119.26 174.675 119.26C170.955 119.26 167.595 118.3 164.595 116.38C161.595 114.46 159.195 111.73 157.395 108.19C155.655 104.59 154.785 100.33 154.785 95.41C154.785 90.49 155.655 86.17 157.395 82.45C159.195 78.67 161.685 75.73 164.865 73.63C168.045 71.47 171.675 70.39 175.755 70.39ZM218.894 70.39C224.174 70.39 228.284 72.01 231.224 75.25C234.224 78.43 235.724 83.41 235.724 90.19H203.954L203.864 88.48H227.084C227.204 85.54 226.964 82.84 226.364 80.38C225.764 77.86 224.804 75.85 223.484 74.35C222.224 72.85 220.574 72.1 218.534 72.1C215.774 72.1 213.314 73.48 211.154 76.24C209.054 79 207.794 83.38 207.374 89.38L207.644 89.74C207.524 90.64 207.434 91.63 207.374 92.71C207.314 93.79 207.284 94.87 207.284 95.95C207.284 100.03 207.944 103.54 209.264 106.48C210.584 109.42 212.294 111.67 214.394 113.23C216.554 114.73 218.774 115.48 221.054 115.48C222.854 115.48 224.564 115.21 226.184 114.67C227.804 114.07 229.304 113.11 230.684 111.79C232.064 110.47 233.264 108.7 234.284 106.48L236.084 107.2C235.424 109.18 234.344 111.1 232.844 112.96C231.344 114.82 229.454 116.35 227.174 117.55C224.894 118.69 222.254 119.26 219.254 119.26C214.934 119.26 211.214 118.27 208.094 116.29C205.034 114.31 202.664 111.58 200.984 108.1C199.364 104.56 198.554 100.51 198.554 95.95C198.554 90.67 199.394 86.14 201.074 82.36C202.754 78.52 205.124 75.58 208.184 73.54C211.244 71.44 214.814 70.39 218.894 70.39Z" fill="black"/>
<path d="M352.64 116.64C349.867 116.64 348.48 114.613 348.48 110.56C348.48 106.4 349.92 100.267 352.8 92.16C349.387 96.5333 345.973 100.427 342.56 103.84C339.253 107.147 335.947 109.867 332.64 112C330.293 113.707 328.16 114.56 326.24 114.56C323.68 114.56 322.4 112.8 322.4 109.28C322.4 107.36 322.72 105.6 323.36 104C324.213 101.653 325.44 98.9333 327.04 95.84C328.747 92.7467 330.72 89.6533 332.96 86.56C335.2 83.4667 337.493 80.8533 339.84 78.72C340.693 78.1867 341.227 77.92 341.44 77.92C342.187 77.92 342.56 78.3467 342.56 79.2C342.56 79.52 342.4 79.9467 342.08 80.48C341.12 81.5467 340 83.0933 338.72 85.12C337.44 87.1467 336.213 89.3333 335.04 91.68C333.867 94.0267 332.853 96.2133 332 98.24C331.253 100.16 330.88 101.6 330.88 102.56C330.88 104.48 331.733 105.44 333.44 105.44C334.187 105.44 334.987 105.173 335.84 104.64C339.787 102.187 343.413 99.2533 346.72 95.84C350.027 92.32 353.12 87.5733 356 81.6C356.96 80.96 358.027 80.64 359.2 80.64C360.373 80.64 361.333 81.0133 362.08 81.76C362.933 82.5067 363.36 83.52 363.36 84.8C363.36 85.76 363.093 86.88 362.56 88.16C362.453 88.5867 362.24 89.0133 361.92 89.44C361.707 89.8667 361.44 90.3467 361.12 90.88C360.8 91.4133 360.533 91.9467 360.32 92.48C360.107 92.9067 359.893 93.28 359.68 93.6C357.653 97.2267 356.053 100.267 354.88 102.72C353.813 105.173 353.28 107.307 353.28 109.12C353.28 111.253 354.24 112.32 356.16 112.32C357.867 112.32 359.573 111.68 361.28 110.4C362.347 109.653 363.253 109.28 364 109.28C365.173 109.28 364.907 110.027 363.2 111.52C361.6 112.907 359.627 114.187 357.28 115.36C355.04 116.213 353.493 116.64 352.64 116.64ZM367.88 115.36C366.493 115.36 365.8 114.133 365.8 111.68C365.8 109.653 366.28 107.68 367.24 105.76C369.693 101.067 371.933 96.4267 373.96 91.84C375.347 89.0667 376.627 86.4 377.8 83.84C379.08 81.28 380.253 78.9333 381.32 76.8C381.96 76.16 382.6 75.84 383.24 75.84C384.627 75.84 385.053 76.48 384.52 77.76C384.307 78.5067 383.987 79.4133 383.56 80.48C383.24 81.44 382.813 82.6133 382.28 84C380.573 88.48 379.56 91.6267 379.24 93.44C382.227 90.7733 385.267 88.32 388.36 86.08C391.56 83.7333 394.547 81.8133 397.32 80.32C400.093 78.8267 402.44 78.08 404.36 78.08C406.067 78.08 406.92 78.7733 406.92 80.16C406.92 81.3333 406.387 82.6133 405.32 84C404.253 85.28 403.187 85.92 402.12 85.92C401.587 85.92 401.16 85.76 400.84 85.44C400.52 85.3333 399.88 85.28 398.92 85.28C395.507 85.28 391.933 86.9333 388.2 90.24C384.253 93.5467 380.68 97.5467 377.48 102.24C374.28 106.827 371.933 110.827 370.44 114.24C369.693 114.987 368.84 115.36 367.88 115.36ZM424.723 116.32C424.509 116.32 424.296 116.267 424.083 116.16C423.869 116.16 423.656 116.107 423.443 116C421.949 115.253 420.989 114.187 420.563 112.8C420.136 111.413 420.029 109.653 420.243 107.52C420.456 106.667 420.669 105.173 420.883 103.04C421.203 100.907 421.576 99.2 422.003 97.92L413.843 105.76L409.363 110.08C406.269 113.173 403.709 114.72 401.683 114.72C400.829 114.72 400.136 114.4 399.603 113.76C398.643 112.587 398.163 111.147 398.163 109.44C398.163 107.2 398.749 104.8 399.923 102.24C401.096 99.68 402.483 97.2267 404.083 94.88C405.683 92.4267 407.123 90.4 408.403 88.8C411.603 84.8533 414.696 81.76 417.682 79.52C420.776 77.28 423.976 76.16 427.283 76.16C429.096 76.16 430.856 76.48 432.563 77.12C434.376 77.76 436.029 78.8267 437.523 80.32L437.682 80.48C437.682 80.8 437.416 81.12 436.883 81.44C436.669 81.6533 436.456 81.8133 436.243 81.92C436.136 82.0267 436.029 82.1333 435.923 82.24C434.643 83.52 433.203 85.6533 431.603 88.64C430.003 91.6267 428.616 94.7733 427.443 98.08C426.269 101.28 425.683 104.053 425.683 106.4C425.683 108.533 426.216 109.973 427.283 110.72C427.816 111.04 428.403 111.2 429.043 111.2C430.429 111.2 432.349 110.347 434.803 108.64C434.909 108.533 435.123 108.373 435.443 108.16C435.869 107.84 436.456 107.413 437.203 106.88C438.056 106.24 438.749 105.92 439.283 105.92C439.816 105.92 440.083 106.133 440.083 106.56C440.083 107.2 439.656 107.947 438.802 108.8C438.163 109.333 437.416 109.92 436.562 110.56C435.816 111.2 434.909 111.84 433.843 112.48C432.243 113.653 430.589 114.56 428.883 115.2C427.176 115.947 425.789 116.32 424.723 116.32ZM406.643 106.08C408.883 106.08 413.043 102.773 419.123 96.16C420.723 94.3467 422.163 92.64 423.443 91.04C424.723 89.3333 425.896 87.68 426.963 86.08C428.883 82.9867 429.523 80.8533 428.883 79.68C428.563 79.04 427.923 78.72 426.963 78.72C425.789 78.72 424.189 79.36 422.163 80.64C420.136 81.8133 418.056 83.36 415.923 85.28C413.896 87.2 412.029 89.12 410.323 91.04C409.149 92.5333 407.976 94.6133 406.803 97.28C405.629 99.9467 405.043 102.133 405.043 103.84C405.043 105.333 405.576 106.08 406.643 106.08Z" fill="#FFE100"/>
<path d="M184.12 158.5C178.113 158.5 173.467 156.743 170.18 153.23C166.78 149.717 165.08 144.957 165.08 138.95C165.08 137.477 165.193 136.06 165.42 134.7C165.533 133.34 165.703 132.093 165.93 130.96C167.97 121.327 173.127 110.277 181.4 97.81C186.84 89.4233 192.903 81.83 199.59 75.03C206.39 68.23 213.36 62.79 220.5 58.71C227.753 54.63 234.723 52.59 241.41 52.59C245.263 52.59 248.097 53.6667 249.91 55.82C251.723 57.86 252.63 60.6367 252.63 64.15C252.63 68.23 251.61 72.9333 249.57 78.26C247.417 83.5867 244.753 88.63 241.58 93.39C238.52 98.0367 235.517 101.437 232.57 103.59C232.117 104.043 231.607 104.27 231.04 104.27C230.587 104.27 230.36 103.987 230.36 103.42C230.36 102.173 231.153 100.927 232.74 99.68C234.213 98.66 235.8 96.9033 237.5 94.41C239.313 91.8033 241.013 88.9133 242.6 85.74C244.3 82.5667 245.66 79.3933 246.68 76.22C247.813 73.0467 248.38 70.3267 248.38 68.06C248.38 62.62 245.66 59.9 240.22 59.9C229.907 59.9 219.933 63.8667 210.3 71.8C203.84 77.0133 197.947 83.1333 192.62 90.16C187.407 97.0733 182.93 104.157 179.19 111.41C175.563 118.663 172.9 125.52 171.2 131.98C170.52 134.473 170.18 136.967 170.18 139.46C170.18 144.333 171.597 148.187 174.43 151.02C177.15 153.853 180.89 155.043 185.65 154.59C194.377 153.797 204.01 150.34 214.55 144.22C221.463 140.14 228.15 135.55 234.61 130.45C241.07 125.35 247.077 120.023 252.63 114.47C258.183 108.803 263 103.363 267.08 98.15L258.92 99.34C256.427 99.68 254.33 100.077 252.63 100.53C251.043 100.87 249.967 101.153 249.4 101.38C249.173 101.493 248.89 101.55 248.55 101.55C247.87 101.55 247.53 101.04 247.53 100.02C247.53 99 247.87 97.81 248.55 96.45C249.343 95.09 250.193 94.1833 251.1 93.73C254.16 92.1433 261.47 90.9533 273.03 90.16C278.017 84.4933 283.173 78.8267 288.5 73.16C294.167 67.04 298.927 61.8267 302.78 57.52C306.633 53.2133 310.033 49.2467 312.98 45.62C316.04 41.88 318.987 38.0267 321.82 34.06C322.727 32.8133 323.633 32.19 324.54 32.19C325.22 32.19 325.56 32.53 325.56 33.21C325.56 33.89 325.333 34.4567 324.88 34.91C321.027 40.35 317.003 45.6767 312.81 50.89C308.617 56.1033 303.97 61.6567 298.87 67.55C293.883 73.33 288.217 79.9033 281.87 87.27L279.66 89.82L287.48 89.48L302.44 88.97C302.327 89.1967 302.837 88.1767 303.97 85.91C305.103 83.53 306.803 79.9033 309.07 75.03C312.243 68.4567 315.02 62.62 317.4 57.52C319.893 52.3067 321.933 47.83 323.52 44.09C326.807 36.7233 328.507 31.6233 328.62 28.79C328.733 27.3167 329.47 26.1833 330.83 25.39C332.19 24.5967 333.72 24.2 335.42 24.2C336.667 24.2 337.8 24.4267 338.82 24.88C339.953 25.22 340.633 25.6733 340.86 26.24C341.427 27.26 340.577 29.98 338.31 34.4C336.837 37.46 335.023 40.9733 332.87 44.94C330.717 48.9067 328.28 53.3267 325.56 58.2C321.82 64.8867 318.59 70.78 315.87 75.88C313.263 80.98 311.167 85.2867 309.58 88.8L322.67 88.12H323.18C324.2 88.12 324.71 88.46 324.71 89.14C324.71 89.5933 324.427 90.0467 323.86 90.5C323.293 90.9533 322.557 91.2367 321.65 91.35L307.88 92.37C307.767 92.5967 307.143 93.9567 306.01 96.45C304.877 98.9433 303.233 102.513 301.08 107.16C296.773 116.68 294.62 124.783 294.62 131.47C294.62 136.003 296.32 138.27 299.72 138.27C300.627 138.27 301.817 137.817 303.29 136.91C304.877 136.117 306.35 135.153 307.71 134.02C309.183 132.887 310.26 131.867 310.94 130.96C311.733 129.827 312.527 129.26 313.32 129.26C313.773 129.26 314 129.487 314 129.94C314 130.507 313.547 131.243 312.64 132.15C311.507 133.397 310.033 134.813 308.22 136.4C306.407 137.987 304.593 139.347 302.78 140.48C300.967 141.613 299.437 142.237 298.19 142.35C290.937 142.803 287.31 139.517 287.31 132.49C287.31 128.297 288.33 123.48 290.37 118.04C292.523 112.6 295.187 106.253 298.36 99L301.08 92.88C297.227 93.22 291.957 94.07 285.27 95.43C282.89 95.8833 280.737 96.28 278.81 96.62C276.997 96.8467 275.467 97.0733 274.22 97.3C267.533 104.893 260.337 112.317 252.63 119.57C244.923 126.823 237.047 133.397 229 139.29C221.067 145.183 213.247 149.83 205.54 153.23C197.947 156.743 190.807 158.5 184.12 158.5Z" fill="#FFE100"/>
</svg>
